<svg width="35" height="17" viewBox="0 0 35 17" fill="none" xmlns="http://www.w3.org/2000/svg">
<path d="M1 13.4V3.6C1 2.16406 2.16406 1 3.6 1H29.722C31.158 1 32.322 2.16406 32.322 3.6V6V8.5V11V13.4C32.322 14.8359 31.158 16 29.722 16H3.6C2.16406 16 1 14.8359 1 13.4Z" stroke="black" stroke-width="2"/>
<path d="M32.322 6.83898V8.5V10.161C32.322 10.6244 32.6976 11 33.161 11C33.6244 11 34 10.6244 34 10.161V6.83898C34 6.37563 33.6244 6 33.161 6C32.6976 6 32.322 6.37563 32.322 6.83898Z" stroke="black" stroke-width="2"/>
</svg>
